<?xml version="1.0" standalone="no"?><!DOCTYPE svg PUBLIC "-//W3C//DTD SVG 1.1//EN" "http://www.w3.org/Graphics/SVG/1.1/DTD/svg11.dtd"><svg width="200" height="200" viewBox="0 0 200 200" version="1.1" xmlns="http://www.w3.org/2000/svg" xmlns:xlink="http://www.w3.org/1999/xlink"><defs><style type="text/css"><![CDATA[

]]></style></defs><g class="transform-group"><g transform="scale(0.1953125, 0.1953125)"><path d="M184.2 203.3c-47.6 0-86.2 38.6-86.2 86.2s38.6 86.2 86.2 86.2 86.2-38.6 86.2-86.2-38.6-86.2-86.2-86.2z m0 229.8c-47.6 0-86.2 38.6-86.2 86.2s38.6 86.2 86.2 86.2 86.2-38.6 86.2-86.2-38.6-86.2-86.2-86.2z m0 229.9c-47.6 0-86.2 38.6-86.2 86.2s38.6 86.2 86.2 86.2 86.2-38.6 86.2-86.2-38.6-86.2-86.2-86.2z m229.9-316.1h459.7c31.7 0 57.5-25.7 57.5-57.5 0-31.7-25.7-57.5-57.5-57.5H414.1c-31.7 0-57.5 25.7-57.5 57.5s25.7 57.5 57.5 57.5z m459.7 115H414.1c-31.7 0-57.5 25.7-57.5 57.5 0 31.7 25.7 57.5 57.5 57.5h459.7c31.7 0 57.5-25.7 57.5-57.5-0.1-31.8-25.8-57.5-57.5-57.5z m0 229.8H414.1c-31.7 0-57.5 25.7-57.5 57.5 0 31.7 25.7 57.5 57.5 57.5h459.7c31.7 0 57.5-25.7 57.5-57.5-0.1-31.7-25.8-57.5-57.5-57.5z" fill="#272636"></path></g></g></svg>